<svg id="Layer_1" data-name="Layer 1" xmlns="http://www.w3.org/2000/svg" xmlns:xlink="http://www.w3.org/1999/xlink" viewBox="0 0 964.63 727.81"><title>mashup</title><image width="500" height="350" transform="translate(158.65 2.77) scale(1.81)" xlink:href="nasco-corn-flakes-350g.png"/><image width="928" height="928" transform="translate(59.87 48.13) scale(0.65)" xlink:href="width1960%20(2).png"/><image width="1960" height="1960" transform="translate(-157.47 66.7) scale(0.29)" xlink:href="width1960.png"/><image width="720" height="960" transform="translate(424.99 9.89) scale(0.57)" xlink:href="golden_morn_1kg.png"/><image width="960" height="1122" transform="translate(296.69 123.91) scale(0.46)" xlink:href="3e0121d1f92c459181a4b3de690fa2dd-screen.png"/><image width="750" height="750" transform="translate(-8.41 84.53) scale(0.71)" xlink:href="width1960%20(1).png"/><image width="700" height="700" transform="translate(28.64 287.3) scale(0.52)" xlink:href="Fanta%20Orange%20Cans%20330ml%20(Fanta).png"/><image width="518" height="605" transform="translate(158.65 233.55) scale(0.67)" xlink:href="357088-web_1010x1180_transparent_png.png"/><image width="518" height="605" transform="translate(126.43 334.56) scale(0.54)" xlink:href="c39b92c1e2c542a68e0ef8a30c0e8b7b-web_1010x1180_transparent_png.png"/><image width="351" height="600" transform="translate(526.57 217.96) scale(0.72)" xlink:href="Peak-360g-Full-Cream-IMP-pouch_new.png"/><image width="520" height="422" transform="translate(277.92 268.89)" xlink:href="Chicken-70g-use.png"/><image width="492" height="1018" transform="translate(537.7 313.11) scale(0.29 0.34)" xlink:href="dettol-asl-large.png"/><image width="424" height="446" transform="translate(352.79 357.47) scale(0.87)" xlink:href="new-fragrance.png"/><image width="1000" height="1000" transform="translate(142.19 343.11) scale(0.45)" xlink:href="productImage%20(1).png"/></svg>